<svg width="1400" height="360" viewBox="0 0 1400 360" fill="none" xmlns="http://www.w3.org/2000/svg">
  <rect width="1400" height="360" rx="28" fill="#070A12"/>
  <path d="M0 285 C210 230 350 330 560 275 C760 222 900 132 1120 166 C1240 184 1320 230 1400 200 V360 H0 V285Z" fill="#101827"/>
  <rect x="80" y="76" width="1240" height="208" rx="22" stroke="#27324A" stroke-width="2"/>
  <text x="100" y="143" fill="#D6B56D" font-family="Georgia, 'Times New Roman', serif" font-size="26" letter-spacing="4">CASEBUILDER</text>
  <text x="100" y="204" fill="#FFFFFF" font-family="Inter, ui-sans-serif, system-ui, -apple-system, BlinkMacSystemFont, 'Segoe UI', sans-serif" font-size="54" font-weight="700">The operating system for litigation.</text>
  <text x="104" y="250" fill="#B6C0D4" font-family="Inter, ui-sans-serif, system-ui, -apple-system, BlinkMacSystemFont, 'Segoe UI', sans-serif" font-size="25">Capture the record. Build the case. Review understanding. Generate work product.</text>
  <g transform="translate(1115 92)">
    <circle cx="72" cy="72" r="70" stroke="#D6B56D" stroke-width="3" fill="#0B1020"/>
    <path d="M72 28 V116" stroke="#D6B56D" stroke-width="5" stroke-linecap="round"/>
    <path d="M36 58 H108" stroke="#D6B56D" stroke-width="5" stroke-linecap="round"/>
    <path d="M47 58 L24 103 H70 L47 58Z" stroke="#D6B56D" stroke-width="4" fill="none" stroke-linejoin="round"/>
    <path d="M97 58 L74 103 H120 L97 58Z" stroke="#D6B56D" stroke-width="4" fill="none" stroke-linejoin="round"/>
    <path d="M42 129 H102" stroke="#D6B56D" stroke-width="5" stroke-linecap="round"/>
  </g>
</svg>
